<svg width="514" height="516" viewBox="0 0 514 516" fill="none" xmlns="http://www.w3.org/2000/svg">
<circle cx="257" cy="257" r="257" fill="#D9D9D9"/>
<path d="M147.575 24.4594C98.5845 47.5124 58.1263 85.449 31.9724 132.857C5.81854 180.264 -4.69475 234.721 1.93246 288.457C8.55966 342.193 31.9888 392.464 68.8772 432.097C105.766 471.729 154.229 498.699 207.352 509.159L257 257L147.575 24.4594Z" fill="#97BB31"/>
<path d="M514 259C514 215.711 503.065 173.124 482.211 135.189C461.356 97.255 431.257 65.203 394.707 42.0077C358.157 18.8124 316.341 5.22526 273.137 2.50713C229.934 -0.210998 186.744 8.02795 147.575 26.4595L257 259H514Z" fill="#FF69B4"/>
<path opacity="0.2" d="M514 259C514 215.711 503.065 173.124 482.211 135.189C461.356 97.255 431.257 65.203 394.707 42.0077C358.157 18.8124 316.341 5.22526 273.137 2.50713C229.934 -0.210998 186.744 8.02795 147.575 26.4595L257 259H514Z" fill="black"/>
</svg>
